<svg xmlns="http://www.w3.org/2000/svg" viewBox="0 0 512 512"><defs><filter id="b" width="120%" height="120%" x="-10%" y="-10%"><feDropShadow dx="0" dy="2" flood-color="#0f172a" flood-opacity=".2" stdDeviation="2.5"/></filter><filter id="c" width="140%" height="140%" x="-20%" y="-20%"><feDropShadow dx="0" dy="2" flood-color="#0f172a" flood-opacity=".22" stdDeviation="4"/></filter><linearGradient id="a" x1="0" x2="0" y1="0" y2="1"><stop offset="0" stop-color="#fff"/><stop offset="1" stop-color="#f1f5f9"/></linearGradient></defs><circle cx="256" cy="256" r="256" fill="url(#a)"/><circle cx="256" cy="256" r="255" fill="none" stroke="#e2e8f0" opacity=".5"/><g filter="url(#b)" transform="translate(256 256)"><path fill="#ff3b30" d="M0-200c45 20 60 100 40 160C25-10 10-2 0 0c-10-2-25-10-40-40-20-60-5-140 40-160"/><path fill="#ff9500" d="M141.421-141.421C159.1-95.46 113.137-28.284 56.57 0 24.749 10.607 8.485 5.657 0 0c-5.657-8.485-10.607-24.749 0-56.569 28.284-56.568 95.46-102.53 141.421-84.852"/><path fill="#fc0" d="M200 0C180 45 100 60 40 40 10 25 2 10 0 0c2-10 10-25 40-40 60-20 140-5 160 40"/><path fill="#34c759" d="M141.421 141.421C95.46 159.1 28.284 113.137 0 56.57-10.607 24.749-5.657 8.485 0 0c8.485-5.657 24.749-10.607 56.569 0 56.568 28.284 102.53 95.46 84.852 141.421"/><path fill="#00c7be" d="M0 200c-45-20-60-100-40-160C-25 10-10 2 0 0c10 2 25 10 40 40 20 60 5 140-40 160"/><path fill="#007aff" d="M-141.421 141.421C-159.1 95.46-113.137 28.284-56.57 0-24.749-10.607-8.485-5.657 0 0c5.657 8.485 10.607 24.749 0 56.569-28.284 56.568-95.46 102.53-141.421 84.852"/><path fill="#af52de" d="M-200 0c20-45 100-60 160-40C-10-25-2-10 0 0c-2 10-10 25-40 40-60 20-140 5-160-40"/><path fill="#ff2d55" d="M-141.421-141.421C-95.46-159.1-28.284-113.137 0-56.57 10.607-24.749 5.657-8.485 0 0c-8.485 5.657-24.749 10.607-56.569 0-56.568-28.284-102.53-95.46-84.852-141.421"/></g><circle cx="256" cy="256" r="44" fill="#fff" filter="url(#c)"/><circle cx="256" cy="256" r="44" fill="none" stroke="#e2e8f0" opacity=".5"/></svg>