<svg xmlns="http://www.w3.org/2000/svg" viewBox="0 0 512 512"><defs><filter id="b" width="120%" height="120%" x="-10%" y="-10%"><feDropShadow dx="0" dy="2" flood-color="#0f172a" flood-opacity=".2" stdDeviation="2.5"/></filter><filter id="d" width="140%" height="140%" x="-20%" y="-20%"><feDropShadow dx="0" dy="2" flood-color="#0f172a" flood-opacity=".22" stdDeviation="4"/></filter><radialGradient id="c" cx="50%" cy="40%" r="60%"><stop offset="0" stop-color="#fff"/><stop offset=".7" stop-color="#f8fafc"/><stop offset="1" stop-color="#e2e8f0"/></radialGradient><linearGradient id="a" x1="0" x2="0" y1="0" y2="1"><stop offset="0" stop-color="#fff"/><stop offset="1" stop-color="#f1f5f9"/></linearGradient></defs><rect width="512" height="512" fill="url(#a)" rx="112"/><rect width="512" height="512" fill="none" stroke="#e2e8f0" opacity=".5" rx="112"/><g filter="url(#b)" transform="translate(256 256)"><path fill="#ff3b30" d="M0-210c50 5 85 35 80 90-10 45-30 75-55 92-13 6-21 6-25 6s-10-3-16-12c-34-51-39-126-14-161 10-13 20-15 30-15"/><path fill="#ff9500" d="M148.492-148.492c31.82 38.89 35.356 84.852-7.07 120.208C102.53-3.536 67.174 3.536 37.476-2.121c-13.435-4.95-19.092-10.607-21.92-13.435-2.83-2.829-4.95-9.193-2.83-19.8 12.022-60.103 61.52-116.672 103.946-123.743 16.263-2.121 24.748 3.536 31.82 10.607"/><path fill="#fc0" d="M210 0c-5 50-35 85-90 80-45-10-75-30-92-55-6-13-6-21-6-25s3-10 12-16c51-34 126-39 161-14 13 10 15 20 15 30"/><path fill="#34c759" d="M148.492 148.492c-38.89 31.82-84.852 35.356-120.208-7.07C3.536 102.53-3.536 67.174 2.121 37.476c4.95-13.435 10.607-19.092 13.435-21.92 2.829-2.83 9.193-4.95 19.8-2.83 60.103 12.022 116.672 61.52 123.743 103.946 2.121 16.263-3.536 24.748-10.607 31.82"/><path fill="#00c7be" d="M0 210c-50-5-85-35-80-90 10-45 30-75 55-92 13-6 21-6 25-6s10 3 16 12c34 51 39 126 14 161-10 13-20 15-30 15"/><path fill="#007aff" d="M-148.492 148.492c-31.82-38.89-35.356-84.852 7.07-120.208C-102.53 3.536-67.174-3.536-37.476 2.121c13.435 4.95 19.092 10.607 21.92 13.435 2.83 2.829 4.95 9.193 2.83 19.8-12.022 60.103-61.52 116.672-103.946 123.743-16.263 2.121-24.748-3.536-31.82-10.607"/><path fill="#af52de" d="M-210 0c5-50 35-85 90-80 45 10 75 30 92 55 6 13 6 21 6 25s-3 10-12 16c-51 34-126 39-161 14-13-10-15-20-15-30"/><path fill="#ff2d55" d="M-148.492-148.492c38.89-31.82 84.852-35.356 120.208 7.07C-3.536-102.53 3.536-67.174-2.121-37.476c-4.95 13.435-10.607 19.092-13.435 21.92-2.829 2.83-9.193 4.95-19.8 2.83-60.103-12.022-116.672-61.52-123.743-103.946-2.121-16.263 3.536-24.748 10.607-31.82"/></g><circle cx="256" cy="256" r="48" fill="url(#c)" filter="url(#d)"/><circle cx="256" cy="256" r="48" fill="none" stroke="#fff" stroke-width="2" opacity=".9"/><ellipse cx="242" cy="242" fill="#fff" opacity=".7" rx="10" ry="6"/></svg>