<svg xmlns="http://www.w3.org/2000/svg" viewBox="0 0 512 512"><defs><filter id="b" width="140%" height="140%" x="-20%" y="-20%"><feDropShadow dx="0" dy="3" flood-color="#0f172a" flood-opacity=".14" stdDeviation="4"/></filter><filter id="d" width="140%" height="140%" x="-20%" y="-20%"><feDropShadow dx="0" dy="2" flood-color="#0f172a" flood-opacity=".18" stdDeviation="3"/></filter><radialGradient id="c" cx="50%" cy="40%" r="60%"><stop offset="0" stop-color="#fff"/><stop offset=".7" stop-color="#f8fafc"/><stop offset="1" stop-color="#e2e8f0"/></radialGradient><linearGradient id="a" x1="0" x2="0" y1="0" y2="1"><stop offset="0" stop-color="#fff"/><stop offset="1" stop-color="#f1f5f9"/></linearGradient></defs><circle cx="256" cy="256" r="256" fill="url(#a)"/><circle cx="256" cy="256" r="255" fill="none" stroke="#e2e8f0" opacity=".5"/><g fill="none" stroke-width="36" filter="url(#b)" transform="translate(256 256)"><path stroke="#ff3b30" d="M0-190a190 190 0 0 1 134 56"/><path stroke="#ff9500" d="M134-134A190 190 0 0 1 190 0"/><path stroke="#fc0" d="M190 0a190 190 0 0 1-56 134"/><path stroke="#34c759" d="M134 134A190 190 0 0 1 0 190"/><path stroke="#00c7be" d="M0 190a190 190 0 0 1-134-56"/><path stroke="#007aff" d="M-134 134A190 190 0 0 1-190 0"/><path stroke="#af52de" d="M-190 0a190 190 0 0 1 56-134"/><path stroke="#ff2d55" d="M-134-134A190 190 0 0 1 0-190"/></g><circle cx="256" cy="256" r="122" fill="url(#c)" filter="url(#d)"/><circle cx="256" cy="256" r="122" fill="none" stroke="#fff" stroke-width="2" opacity=".8"/><ellipse cx="220" cy="220" fill="#fff" opacity=".7" rx="20" ry="14"/></svg>