<svg xmlns="http://www.w3.org/2000/svg" viewBox="0 0 512 512"><defs><filter id="b" width="120%" height="120%" x="-10%" y="-10%"><feDropShadow dx="0" dy="2" flood-color="#0f172a" flood-opacity=".22" stdDeviation="2.5"/></filter><filter id="c" width="140%" height="140%" x="-20%" y="-20%"><feDropShadow dx="0" dy="2" flood-color="#0f172a" flood-opacity=".2" stdDeviation="3"/></filter><linearGradient id="a" x1="0" x2="0" y1="0" y2="1"><stop offset="0" stop-color="#fff"/><stop offset="1" stop-color="#f1f5f9"/></linearGradient></defs><rect width="512" height="512" fill="url(#a)" rx="112"/><rect width="512" height="512" fill="none" stroke="#e2e8f0" opacity=".5" rx="112"/><g filter="url(#b)" transform="translate(256 256)"><path fill="#ff3b30" d="m0-200 35 2L18-42 0 0l-18-42-17-156Z"/><path fill="#ff9500" d="m141.421-141.421 23.335 26.163-122.33 98.287L0 0l16.97-42.426 98.288-122.33Z"/><path fill="#fc0" d="m200 0-2 35L42 18 0 0l42-18 156-17Z"/><path fill="#34c759" d="m141.421 141.421-26.163 23.335-98.287-122.33L0 0l42.426 16.97 122.33 98.288Z"/><path fill="#00c7be" d="m0 200-35-2 17-156L0 0l18 42 17 156Z"/><path fill="#007aff" d="m-141.421 141.421-23.335-26.163 122.33-98.287L0 0l-16.97 42.426-98.288 122.33Z"/><path fill="#af52de" d="m-200 0 2-35 156 17L0 0l-42 18-156 17Z"/><path fill="#ff2d55" d="m-141.421-141.421 26.163-23.335 98.287 122.33L0 0l-42.426-16.97-122.33-98.288Z"/></g><path fill="#fff" d="m0-46 40 23v46L0 46l-40-23v-46z" filter="url(#c)" transform="translate(256 256)"/><path fill="none" stroke="#e2e8f0" stroke-width="1.5" d="m256 210 40 23v46l-40 23-40-23v-46z" opacity=".6"/></svg>